<svg width="24" height="24" viewBox="0 0 24 24" fill="none" xmlns="http://www.w3.org/2000/svg">
<path d="M9.99918 7.99826H14.0008" stroke="black" stroke-opacity="0.4" stroke-width="1.5" stroke-linecap="round" stroke-linejoin="round"/>
<path fill-rule="evenodd" clip-rule="evenodd" d="M5.99751 21.0038H2.99626V7.88735C2.99626 7.16098 3.38987 6.49164 4.02469 6.13862L11.0276 2.248C11.632 1.91212 12.367 1.91212 12.9714 2.248L19.9743 6.13862C20.6095 6.49138 21.0038 7.16077 21.0038 7.88735V21.0038H18.0025V12.0001H5.99751V21.0038Z" stroke="black" stroke-width="1.5" stroke-linecap="round" stroke-linejoin="round"/>
<path d="M12 15.001V17.7641" stroke="black" stroke-opacity="0.4" stroke-width="1.5" stroke-linecap="round" stroke-linejoin="round"/>
<path fill-rule="evenodd" clip-rule="evenodd" d="M9.85611 21.0035H14.1439C14.6174 21.0035 15.0012 20.6196 15.0012 20.1461V17.0888C15.0015 16.7415 14.931 16.3977 14.7942 16.0784L14.5561 15.5212C14.4211 15.2056 14.111 15.001 13.7677 15.001H10.2313C9.88813 15.0012 9.57811 15.2058 9.44293 15.5212L9.20584 16.0774C9.069 16.3967 8.99854 16.7405 8.99875 17.0878V20.1461C8.99875 20.6196 9.3826 21.0035 9.85611 21.0035V21.0035Z" stroke="black" stroke-opacity="0.4" stroke-width="1.5" stroke-linecap="round" stroke-linejoin="round"/>
</svg>
